<?xml version="1.0" encoding="UTF-8" standalone="no"?>
<!DOCTYPE svg PUBLIC "-//W3C//DTD SVG 1.1//EN"
 "http://www.w3.org/Graphics/SVG/1.1/DTD/svg11.dtd">
<!-- Generated by graphviz version 2.40.1 (20161225.0304)
 -->
<!-- Title: Tensor::index Pages: 1 -->
<svg width="463pt" height="104pt"
 viewBox="0.00 0.00 463.00 104.00" xmlns="http://www.w3.org/2000/svg" xmlns:xlink="http://www.w3.org/1999/xlink">
<g id="graph0" class="graph" transform="scale(1 1) rotate(0) translate(4 100)">
<title>Tensor::index</title>
<!-- Node23 -->
<g id="node1" class="node">
<title>Node23</title>
<polygon fill="#bfbfbf" stroke="#000000" points="0,-57.5 0,-76.5 76,-76.5 76,-57.5 0,-57.5"/>
<text text-anchor="middle" x="38" y="-64.5" font-family="Helvetica,sans-Serif" font-size="10.00" fill="#000000">Tensor::index</text>
</g>
<!-- Node24 -->
<g id="node2" class="node">
<title>Node24</title>
<g id="a_node2"><a xlink:href="classTensor.html#af29c0ff50c2dbd82543cbc0d2ff95358" target="_top" xlink:title="Tensor::print">
<polygon fill="none" stroke="#000000" points="114.5,-76.5 114.5,-95.5 185.5,-95.5 185.5,-76.5 114.5,-76.5"/>
<text text-anchor="middle" x="150" y="-83.5" font-family="Helvetica,sans-Serif" font-size="10.00" fill="#000000">Tensor::print</text>
</a>
</g>
</g>
<!-- Node23&#45;&gt;Node24 -->
<g id="edge1" class="edge">
<title>Node23&#45;&gt;Node24</title>
<path fill="none" stroke="#191970" d="M86.246,-75.1846C95.6301,-76.7765 105.3103,-78.4187 114.2052,-79.9277"/>
<polygon fill="#191970" stroke="#191970" points="86.6753,-71.7075 76.2308,-73.4856 85.5045,-78.6089 86.6753,-71.7075"/>
</g>
<!-- Node25 -->
<g id="node3" class="node">
<title>Node25</title>
<g id="a_node3"><a xlink:href="classTensor.html#a862952dc137707abdccd06cf9cd5855b" target="_top" xlink:title="Tensor::plane">
<polygon fill="none" stroke="#000000" points="112,-38.5 112,-57.5 188,-57.5 188,-38.5 112,-38.5"/>
<text text-anchor="middle" x="150" y="-45.5" font-family="Helvetica,sans-Serif" font-size="10.00" fill="#000000">Tensor::plane</text>
</a>
</g>
</g>
<!-- Node23&#45;&gt;Node25 -->
<g id="edge2" class="edge">
<title>Node23&#45;&gt;Node25</title>
<path fill="none" stroke="#191970" d="M86.1781,-58.8269C94.7931,-57.3655 103.66,-55.8613 111.9415,-54.4564"/>
<polygon fill="#191970" stroke="#191970" points="85.5045,-55.3911 76.2308,-60.5144 86.6753,-62.2925 85.5045,-55.3911"/>
</g>
<!-- Node26 -->
<g id="node4" class="node">
<title>Node26</title>
<g id="a_node4"><a xlink:href="classTensor.html#a3986d7a50faef0249a8d2da5b1f67a89" target="_top" xlink:title="Tensor::transform">
<polygon fill="none" stroke="#000000" points="228.5,-57.5 228.5,-76.5 322.5,-76.5 322.5,-57.5 228.5,-57.5"/>
<text text-anchor="middle" x="275.5" y="-64.5" font-family="Helvetica,sans-Serif" font-size="10.00" fill="#000000">Tensor::transform</text>
</a>
</g>
</g>
<!-- Node25&#45;&gt;Node26 -->
<g id="edge3" class="edge">
<title>Node25&#45;&gt;Node26</title>
<path fill="none" stroke="#191970" d="M198.3017,-55.3126C208.0776,-56.7926 218.3482,-58.3475 228.093,-59.8228"/>
<polygon fill="#191970" stroke="#191970" points="198.7473,-51.8403 188.3361,-53.8039 197.6995,-58.7614 198.7473,-51.8403"/>
</g>
<!-- Node27 -->
<g id="node5" class="node">
<title>Node27</title>
<g id="a_node5"><a xlink:href="classTensor.html#a447f65c9ada7c9357091fba66ad73d10" target="_top" xlink:title="Tensor::accumulate">
<polygon fill="none" stroke="#000000" points="224,-19.5 224,-38.5 327,-38.5 327,-19.5 224,-19.5"/>
<text text-anchor="middle" x="275.5" y="-26.5" font-family="Helvetica,sans-Serif" font-size="10.00" fill="#000000">Tensor::accumulate</text>
</a>
</g>
</g>
<!-- Node25&#45;&gt;Node27 -->
<g id="edge4" class="edge">
<title>Node25&#45;&gt;Node27</title>
<path fill="none" stroke="#191970" d="M198.3549,-40.6793C206.752,-39.4081 215.5127,-38.0817 223.9903,-36.7983"/>
<polygon fill="#191970" stroke="#191970" points="197.6995,-37.2386 188.3361,-42.1961 198.7473,-44.1597 197.6995,-37.2386"/>
</g>
<!-- Node28 -->
<g id="node6" class="node">
<title>Node28</title>
<g id="a_node6"><a xlink:href="classTensor.html#abf7346c2dbd5e6b195cfe9b66e5049e8" target="_top" xlink:title="Tensor::max_dim">
<polygon fill="none" stroke="#000000" points="363,-38.5 363,-57.5 455,-57.5 455,-38.5 363,-38.5"/>
<text text-anchor="middle" x="409" y="-45.5" font-family="Helvetica,sans-Serif" font-size="10.00" fill="#000000">Tensor::max_dim</text>
</a>
</g>
</g>
<!-- Node27&#45;&gt;Node28 -->
<g id="edge5" class="edge">
<title>Node27&#45;&gt;Node28</title>
<path fill="none" stroke="#191970" d="M337.1417,-37.773C345.7575,-38.9992 354.4875,-40.2417 362.753,-41.418"/>
<polygon fill="#191970" stroke="#191970" points="337.508,-34.2899 327.1146,-36.3459 336.5216,-41.2201 337.508,-34.2899"/>
</g>
<!-- Node29 -->
<g id="node7" class="node">
<title>Node29</title>
<g id="a_node7"><a xlink:href="classTensor.html#a6c8465a488ce260e6e05f1a3ceb8ab26" target="_top" xlink:title="Tensor::avg_dim">
<polygon fill="none" stroke="#000000" points="364.5,-.5 364.5,-19.5 453.5,-19.5 453.5,-.5 364.5,-.5"/>
<text text-anchor="middle" x="409" y="-7.5" font-family="Helvetica,sans-Serif" font-size="10.00" fill="#000000">Tensor::avg_dim</text>
</a>
</g>
</g>
<!-- Node27&#45;&gt;Node29 -->
<g id="edge6" class="edge">
<title>Node27&#45;&gt;Node29</title>
<path fill="none" stroke="#191970" d="M337.0574,-20.239C346.2999,-18.9236 355.676,-17.5892 364.4711,-16.3375"/>
<polygon fill="#191970" stroke="#191970" points="336.5216,-16.7799 327.1146,-21.6541 337.508,-23.7101 336.5216,-16.7799"/>
</g>
</g>
</svg>
