<?xml version="1.0" encoding="UTF-8" standalone="no"?>
<!DOCTYPE svg PUBLIC "-//W3C//DTD SVG 1.1//EN"
 "http://www.w3.org/Graphics/SVG/1.1/DTD/svg11.dtd">
<!-- Generated by graphviz version 2.40.1 (20161225.0304)
 -->
<!-- Title: Tensor::plane Pages: 1 -->
<svg width="351pt" height="85pt"
 viewBox="0.00 0.00 351.00 85.00" xmlns="http://www.w3.org/2000/svg" xmlns:xlink="http://www.w3.org/1999/xlink">
<g id="graph0" class="graph" transform="scale(1 1) rotate(0) translate(4 81)">
<title>Tensor::plane</title>
<!-- Node62 -->
<g id="node1" class="node">
<title>Node62</title>
<polygon fill="#bfbfbf" stroke="#000000" points="0,-38.5 0,-57.5 76,-57.5 76,-38.5 0,-38.5"/>
<text text-anchor="middle" x="38" y="-45.5" font-family="Helvetica,sans-Serif" font-size="10.00" fill="#000000">Tensor::plane</text>
</g>
<!-- Node63 -->
<g id="node2" class="node">
<title>Node63</title>
<g id="a_node2"><a xlink:href="classTensor.html#a3986d7a50faef0249a8d2da5b1f67a89" target="_top" xlink:title="Tensor::transform">
<polygon fill="none" stroke="#000000" points="116.5,-57.5 116.5,-76.5 210.5,-76.5 210.5,-57.5 116.5,-57.5"/>
<text text-anchor="middle" x="163.5" y="-64.5" font-family="Helvetica,sans-Serif" font-size="10.00" fill="#000000">Tensor::transform</text>
</a>
</g>
</g>
<!-- Node62&#45;&gt;Node63 -->
<g id="edge1" class="edge">
<title>Node62&#45;&gt;Node63</title>
<path fill="none" stroke="#191970" d="M86.3017,-55.3126C96.0776,-56.7926 106.3482,-58.3475 116.093,-59.8228"/>
<polygon fill="#191970" stroke="#191970" points="86.7473,-51.8403 76.3361,-53.8039 85.6995,-58.7614 86.7473,-51.8403"/>
</g>
<!-- Node64 -->
<g id="node3" class="node">
<title>Node64</title>
<g id="a_node3"><a xlink:href="classTensor.html#a447f65c9ada7c9357091fba66ad73d10" target="_top" xlink:title="Tensor::accumulate">
<polygon fill="none" stroke="#000000" points="112,-19.5 112,-38.5 215,-38.5 215,-19.5 112,-19.5"/>
<text text-anchor="middle" x="163.5" y="-26.5" font-family="Helvetica,sans-Serif" font-size="10.00" fill="#000000">Tensor::accumulate</text>
</a>
</g>
</g>
<!-- Node62&#45;&gt;Node64 -->
<g id="edge2" class="edge">
<title>Node62&#45;&gt;Node64</title>
<path fill="none" stroke="#191970" d="M86.3549,-40.6793C94.752,-39.4081 103.5127,-38.0817 111.9903,-36.7983"/>
<polygon fill="#191970" stroke="#191970" points="85.6995,-37.2386 76.3361,-42.1961 86.7473,-44.1597 85.6995,-37.2386"/>
</g>
<!-- Node65 -->
<g id="node4" class="node">
<title>Node65</title>
<g id="a_node4"><a xlink:href="classTensor.html#abf7346c2dbd5e6b195cfe9b66e5049e8" target="_top" xlink:title="Tensor::max_dim">
<polygon fill="none" stroke="#000000" points="251,-38.5 251,-57.5 343,-57.5 343,-38.5 251,-38.5"/>
<text text-anchor="middle" x="297" y="-45.5" font-family="Helvetica,sans-Serif" font-size="10.00" fill="#000000">Tensor::max_dim</text>
</a>
</g>
</g>
<!-- Node64&#45;&gt;Node65 -->
<g id="edge3" class="edge">
<title>Node64&#45;&gt;Node65</title>
<path fill="none" stroke="#191970" d="M225.1417,-37.773C233.7575,-38.9992 242.4875,-40.2417 250.753,-41.418"/>
<polygon fill="#191970" stroke="#191970" points="225.508,-34.2899 215.1146,-36.3459 224.5216,-41.2201 225.508,-34.2899"/>
</g>
<!-- Node66 -->
<g id="node5" class="node">
<title>Node66</title>
<g id="a_node5"><a xlink:href="classTensor.html#a6c8465a488ce260e6e05f1a3ceb8ab26" target="_top" xlink:title="Tensor::avg_dim">
<polygon fill="none" stroke="#000000" points="252.5,-.5 252.5,-19.5 341.5,-19.5 341.5,-.5 252.5,-.5"/>
<text text-anchor="middle" x="297" y="-7.5" font-family="Helvetica,sans-Serif" font-size="10.00" fill="#000000">Tensor::avg_dim</text>
</a>
</g>
</g>
<!-- Node64&#45;&gt;Node66 -->
<g id="edge4" class="edge">
<title>Node64&#45;&gt;Node66</title>
<path fill="none" stroke="#191970" d="M225.0574,-20.239C234.2999,-18.9236 243.676,-17.5892 252.4711,-16.3375"/>
<polygon fill="#191970" stroke="#191970" points="224.5216,-16.7799 215.1146,-21.6541 225.508,-23.7101 224.5216,-16.7799"/>
</g>
</g>
</svg>
