<?xml version="1.0" encoding="UTF-8" standalone="no"?>
<!DOCTYPE svg PUBLIC "-//W3C//DTD SVG 1.1//EN"
 "http://www.w3.org/Graphics/SVG/1.1/DTD/svg11.dtd">
<!-- Generated by graphviz version 2.40.1 (20161225.0304)
 -->
<!-- Title: Tensor::accumulate_dim Pages: 1 -->
<svg width="399pt" height="66pt"
 viewBox="0.00 0.00 399.00 66.00" xmlns="http://www.w3.org/2000/svg" xmlns:xlink="http://www.w3.org/1999/xlink">
<g id="graph0" class="graph" transform="scale(1 1) rotate(0) translate(4 62)">
<title>Tensor::accumulate_dim</title>
<!-- Node10 -->
<g id="node1" class="node">
<title>Node10</title>
<polygon fill="#bfbfbf" stroke="#000000" points="0,-19.5 0,-38.5 124,-38.5 124,-19.5 0,-19.5"/>
<text text-anchor="middle" x="62" y="-26.5" font-family="Helvetica,sans-Serif" font-size="10.00" fill="#000000">Tensor::accumulate_dim</text>
</g>
<!-- Node11 -->
<g id="node2" class="node">
<title>Node11</title>
<g id="a_node2"><a xlink:href="classTensor.html#a447f65c9ada7c9357091fba66ad73d10" target="_top" xlink:title="Tensor::accumulate">
<polygon fill="none" stroke="#000000" points="160,-19.5 160,-38.5 263,-38.5 263,-19.5 160,-19.5"/>
<text text-anchor="middle" x="211.5" y="-26.5" font-family="Helvetica,sans-Serif" font-size="10.00" fill="#000000">Tensor::accumulate</text>
</a>
</g>
</g>
<!-- Node10&#45;&gt;Node11 -->
<g id="edge1" class="edge">
<title>Node10&#45;&gt;Node11</title>
<path fill="none" stroke="#191970" d="M134.197,-29C142.8374,-29 151.5232,-29 159.7922,-29"/>
<polygon fill="#191970" stroke="#191970" points="134.1027,-25.5001 124.1027,-29 134.1026,-32.5001 134.1027,-25.5001"/>
</g>
<!-- Node12 -->
<g id="node3" class="node">
<title>Node12</title>
<g id="a_node3"><a xlink:href="classTensor.html#abf7346c2dbd5e6b195cfe9b66e5049e8" target="_top" xlink:title="Tensor::max_dim">
<polygon fill="none" stroke="#000000" points="299,-38.5 299,-57.5 391,-57.5 391,-38.5 299,-38.5"/>
<text text-anchor="middle" x="345" y="-45.5" font-family="Helvetica,sans-Serif" font-size="10.00" fill="#000000">Tensor::max_dim</text>
</a>
</g>
</g>
<!-- Node11&#45;&gt;Node12 -->
<g id="edge2" class="edge">
<title>Node11&#45;&gt;Node12</title>
<path fill="none" stroke="#191970" d="M273.1417,-37.773C281.7575,-38.9992 290.4875,-40.2417 298.753,-41.418"/>
<polygon fill="#191970" stroke="#191970" points="273.508,-34.2899 263.1146,-36.3459 272.5216,-41.2201 273.508,-34.2899"/>
</g>
<!-- Node13 -->
<g id="node4" class="node">
<title>Node13</title>
<g id="a_node4"><a xlink:href="classTensor.html#a6c8465a488ce260e6e05f1a3ceb8ab26" target="_top" xlink:title="Tensor::avg_dim">
<polygon fill="none" stroke="#000000" points="300.5,-.5 300.5,-19.5 389.5,-19.5 389.5,-.5 300.5,-.5"/>
<text text-anchor="middle" x="345" y="-7.5" font-family="Helvetica,sans-Serif" font-size="10.00" fill="#000000">Tensor::avg_dim</text>
</a>
</g>
</g>
<!-- Node11&#45;&gt;Node13 -->
<g id="edge3" class="edge">
<title>Node11&#45;&gt;Node13</title>
<path fill="none" stroke="#191970" d="M273.0574,-20.239C282.2999,-18.9236 291.676,-17.5892 300.4711,-16.3375"/>
<polygon fill="#191970" stroke="#191970" points="272.5216,-16.7799 263.1146,-21.6541 273.508,-23.7101 272.5216,-16.7799"/>
</g>
</g>
</svg>
